<svg xmlns="http://www.w3.org/2000/svg" viewBox="0 0 111.87 130.03"><defs><style>.cls-1{fill:#feba16;stroke-linecap:square;stroke-linejoin:round;stroke-width:10px;}.cls-1,.cls-2,.cls-3{stroke:#211f1f;}.cls-2{fill:#211f1f;stroke-width:5px;}.cls-2,.cls-3{stroke-miterlimit:10;}.cls-3{fill:none;stroke-linecap:round;stroke-width:12px;}</style></defs><title>Head</title><g id="Layer_2" data-name="Layer 2"><g id="Layer_5" data-name="Layer 5"><g id="Head"><path class="cls-1" d="M87,24.72H81.38V9a4,4,0,0,0-4-4H34.5a4,4,0,0,0-4,4V24.72H24.91A19.92,19.92,0,0,0,5,44.64V92.1A19.89,19.89,0,0,0,24.88,112h0v13H87V112h0A19.87,19.87,0,0,0,106.87,92.1V44.64A19.92,19.92,0,0,0,87,24.72Z"/><g id="Eyes"><circle class="cls-2" cx="38.98" cy="59.44" r="5.65"/><circle class="cls-2" cx="72.89" cy="59.44" r="5.65"/></g><path id="Smile" class="cls-3" d="M39,84.08a27.28,27.28,0,0,0,33.81,0"/></g></g></g></svg>